<svg contentScriptType="text/ecmascript" width="346" xmlns:xlink="http://www.w3.org/1999/xlink" zoomAndPan="magnify" contentStyleType="text/css" viewBox="0 0 346 251" height="251" preserveAspectRatio="xMidYMid meet" xmlns="http://www.w3.org/2000/svg" version="1.0">
<defs/>
<g>
<rect x="75.5" width="195" height="20.000000000000014" y="0.5" style="fill:#cccccc;stroke:#000000;"/>
<text x="155" y="105" style="text-anchor:start;font-size:12pt;font-family:sans-serif;fill:#000000;" transform="matrix(1 0 0 1 -29.5 -89.5)">
Cartridge slot</text>
</g>
<g>
<rect x="145.50000000000006" width="55" height="50" y="85.49999999999997" style="stroke-linejoin:miter;stroke-dasharray:none;fill:#99ccff;stroke:#000000;"/>
<text x="230" y="215" style="text-anchor:start;font-size:12pt;font-family:sans-serif;fill:#000000;" transform="matrix(1 0 0 1 -74.5 -99.5)">
CPU</text>
</g>
<g>
<rect x="45.5" width="60" height="50.000000000000014" y="35.499999999999986" style="fill:#ffccff;stroke:#000000;"/>
<text x="140" y="205" style="font-size:12pt;font-family:sans-serif;fill:#000000;" transform="matrix(1 0 0 1 -89.5 -144.5)">
WRAM</text>
<text x="180" y="115" style="font-size:7pt;font-family:sans-serif;fill:#000000;" transform="matrix(1 0 0 1 -124.5 -34.5)">
(128 KiB)</text>
</g>
<g id="3">
<rect x="90.50000000000006" width="55" y="200.49999999999997" height="50" style="stroke-linejoin:miter;stroke-dasharray:none;fill:#ff9999;stroke:#000000;"/>
<text x="230" y="215" style="font-size:12pt;font-family:sans-serif;fill:#000000;" transform="matrix(1 0 0 1 -129.5 15.5)">
PPU</text>
</g>
<g id="4">
<rect x="200.50000000000006" width="55" height="50" y="200.49999999999997" style="stroke-linejoin:miter;stroke-dasharray:none;fill:#ccff99;stroke:#000000;"/>
<text x="230" y="215" style="font-size:12pt;font-family:sans-serif;fill:#000000;" transform="matrix(1 0 0 1 -19.5 15.5)">
APU</text>
</g>
<g id="5">
<rect x="0.4999999999999716" width="60" y="200.49999999999997" height="50.00000000000003" style="fill:#ffccff;stroke:#000000;"/>
<text x="140" y="205" style="font-size:12pt;font-family:sans-serif;fill:#000000;" transform="matrix(1 0 0 1 -134.5 20.5)">
VRAM</text>
<text x="180" y="115" style="font-size:7pt;font-family:sans-serif;fill:#000000;" transform="matrix(1 0 0 1 -164.5 125.5)">
(64 KiB)</text>
</g>
<g>
<path style="fill:#ffffcc;stroke:#000000;" d="M185.5 85.5L185.5 35.5L190.5 35.5L175.5 20.5L160.5 35.5L165.5 35.5L165.5 50.5L120.5 50.5L120.5 45.5L105.5 60.5L120.5 75.5L120.5 70.5L165.5 70.5L165.5 85.5Z"/>
<text x="260" y="230" style="font-size:10pt;font-family:sans-serif;fill:#000000;" transform="matrix(1 0 0 1 -124.5 -164.5)">
A bus</text>
</g>
<g>
<path style="fill:#ccffff;stroke:#000000;" d="M75.5 85.5L60.5 105.5L65.5 105.5L65.5 150.5L20.5 150.5L20.5 180.5L15.5 180.5L30.5 200.5L45.5 180.5L40.5 180.5L40.5 170.5L110.5 170.5L110.5 180.5L105.5 180.5L120.5 200.5L135.5 180.5L130.5 180.5L130.5 170.5L215.5 170.5L215.5 180.5L210.5 180.5L225.5 200.5L240.5 180.5L235.5 180.5L235.5 150.5L185.5 150.5L185.5 135.5L165.5 135.5L165.5 150.5L85.5 150.5L85.5 105.5L90.5 105.5L75.5 85.5Z"/>
<text x="90" y="175" style="font-size:10pt;font-family:sans-serif;fill:#000000;" transform="matrix(1 0 0 1 20.5 -9.5)">
B bus</text>
</g>
<g id="6">
<rect x="285.5" width="60" height="49.99999999999997" y="200.50000000000003" style="fill:#ffccff;stroke:#000000;"/>
<text x="180" y="115" style="font-size:7pt;font-family:sans-serif;fill:#000000;" transform="matrix(1 0 0 1 120.5 130.5)">
(64 KiB)</text>
<text x="450" y="260" style="font-size:10pt;font-family:sans-serif;fill:#000000;" transform="matrix(1 0 0 1 -154.5 -44.5)">
Sound</text>
<text x="450" y="270" style="font-size:10pt;font-family:sans-serif;fill:#000000;" transform="matrix(1 0 0 1 -149.5 -39.5)">
RAM</text>
</g>
<path style="fill:none;stroke:#000000;" d="M90.5 220.5L70.5 220.5L70.5 215.5L60.5 225.5L70.5 235.5L70.5 230.5L90.5 230.5Z"/>
<path style="fill:none;stroke:#000000;" d="M255.5 220.5L275.5 220.5L275.5 215.5L285.5 225.5L275.5 235.5L275.5 230.5L255.5 230.5Z"/>
<g>
<rect x="245.5" width="35" y="75.5" height="70" style="fill:#ffffff;stroke:#000000;"/>
<text x="480" y="70" style="text-decoration:none;text-anchor:start;font-size:10pt;font-family:sans-serif;font-stretch:normal;fill:#000000;" transform="matrix(0 -1 1 0 188.78451538085938 623.8452758789062)">
Controller</text>
<text x="450" y="35" style="font-size:10pt;font-family:sans-serif;fill:#000000;" transform="matrix(0 -1 1 0 238.84524536132812 577.16552734375)">
ports</text>
</g>
<path style="fill:none;stroke:#000000;" d="M200.5 105.5L230.5 105.5L230.5 100.5L245.5 110.5L230.5 120.5L230.5 115.5L200.5 115.5Z"/>
</svg>
